<?xml version="1.0" encoding="UTF-8"?>
<!DOCTYPE svg PUBLIC "-//W3C//DTD SVG 1.1//EN" "http://www.w3.org/Graphics/SVG/1.1/DTD/svg11.dtd">
<svg xmlns="http://www.w3.org/2000/svg" xmlns:xlink="http://www.w3.org/1999/xlink" version="1.1" viewBox="-0.5 -0.5 101 101"><defs/><g><rect x="0" y="0" width="100" height="100" rx="15" ry="15" fill="#ffffff" stroke="#000000" pointer-events="all"/><rect x="14.44" y="30" width="13.33" height="40" fill="#000000" stroke="none" pointer-events="all"/><path d="M -0.57 61.66 L 19.25 38.33 L 59.61 38.33 L 79.43 61.66 Z" fill="#000000" stroke="none" transform="rotate(-90,39.43,49.99)" pointer-events="all"/><path d="M 55.96 43.88 C 58.41 44.93 59.99 47.33 59.99 49.99 C 60 52.66 58.41 55.06 55.97 56.12" fill="none" stroke="#000000" stroke-width="6" stroke-miterlimit="10" pointer-events="all"/><path d="M 62.13 32.04 C 69.22 35.51 73.6 42.84 73.31 50.73 C 73.03 58.62 68.12 65.6 60.8 68.55" fill="none" stroke="#000000" stroke-width="6" stroke-miterlimit="10" pointer-events="all"/><path d="M 68.72 20.44 C 80.29 26.46 87.28 38.67 86.62 51.69 C 85.95 64.71 77.76 76.15 65.65 80.97" fill="none" stroke="#000000" stroke-width="6" stroke-miterlimit="10" pointer-events="all"/><path d="M 14.44 40 L 14.44 40" fill="none" stroke="#ffffff" stroke-width="5" stroke-miterlimit="10" pointer-events="stroke"/><path d="M 14.44 40 L 14.44 40 L 14.44 40 L 14.44 40 Z" fill="#ffffff" stroke="#ffffff" stroke-width="5" stroke-miterlimit="10" pointer-events="all"/></g></svg>